# xmcd
#
# Track frame offsets:
# 150
# 7099
# 21176
# 37184
# 49881
# 62521
# 72647
# 88899
# 104842
# 120132
# 136803
# 150957
# 162952
# 175664
# 191507
# 206615
# 221489
#
# Disc length: 3169 seconds
#
#
# Revision: 0
# Processed by: cddbd v1.5.1PL2 Copyright (c) Steve Scherf et al.
# Submitted via: FreeRIP 2.945 
#
DISCID=ed0c5f11
DTITLE=planeta de cores - planeta de cores
DYEAR=1900
DGENRE=calipso
TTITLE0=dg
TTITLE1=planeta
TTITLE2=dg
TTITLE3=jtt
TTITLE4=f
TTITLE5=jhj
TTITLE6=jhjh
TTITLE7=d
TTITLE8=f
TTITLE9=dfh
TTITLE10=gjuj
TTITLE11=dh
TTITLE12=g
TTITLE13=s
TTITLE14=sgh
TTITLE15=ht
TTITLE16=planeta
EXTD=gira planeta!!!!!!!!!
EXTT0=
EXTT1=
EXTT2=
EXTT3=
EXTT4=
EXTT5=
EXTT6=
EXTT7=
EXTT8=
EXTT9=
EXTT10=
EXTT11=
EXTT12=
EXTT13=
EXTT14=
EXTT15=
EXTT16=
PLAYORDER=
